PathFileType	4	(X/Y/Z)	Patient4_TMGait_0pt4_01_left_20.trc.trc
DataRate	CameraRate	NumFrames	NumMarkers	Units	OrigDataRate	OrigDataStartFrame	OrigNumFrames
80.924855491329	80.924855491329	4	33	mm	80.924855491329	53	       141
Frame#	Time	Sacral			L.Shoulder			Chest			R.Shoulder			Neck			R.ASIS			L.ASIS			R.Thigh.Superior			R.Thigh.Lateral			R.Thigh.Inferior			R.Patella			L.Thigh.Superior			L.Thigh.Lateral			L.Thigh.Inferior			L.Patella			L.Shank.Superior			L.Shank.Lateral			L.Shank.Inferior			R.Shank.Superior			R.Shank.Lateral			R.Shank.Inferior			R.Heel			R.Midfoot.Superior			R.Midfoot.Lateral			R.Toe			L.Heel			L.Midfoot.Lateral			L.Midfoot.Superior			L.Toe			L.Elbow			L.Wrist			R.Elbow			R.Wrist			
		X1	Y1	Z1	X2	Y2	Z2	X3	Y3	Z3	X4	Y4	Z4	X5	Y5	Z5	X6	Y6	Z6	X7	Y7	Z7	X8	Y8	Z8	X9	Y9	Z9	X10	Y10	Z10	X11	Y11	Z11	X12	Y12	Z12	X13	Y13	Z13	X14	Y14	Z14	X15	Y15	Z15	X16	Y16	Z16	X17	Y17	Z17	X18	Y18	Z18	X19	Y19	Z19	X20	Y20	Z20	X21	Y21	Z21	X22	Y22	Z22	X23	Y23	Z23	X24	Y24	Z24	X25	Y25	Z25	X26	Y26	Z26	X27	Y27	Z27	X28	Y28	Z28	X29	Y29	Z29	X30	Y30	Z30	X31	Y31	Z31	X32	Y32	Z32	X33	Y33	Z33	

53	24.572571428571	599.538187506593	1008.558289190964	393.183849259365	788.834857126012	1420.747473297714	183.359501808261	893.630029559798	1360.433526043457	346.694914129398	815.767160912221	1450.986528715104	516.349645182341	786.057578776515	1494.175671061041	337.174263329013	825.669266682462	945.020960786992	511.837720079948	814.890684814451	960.097336119911	237.837860706833	894.684856421450	761.376317242191	494.118955484846	838.172768683435	645.655601561396	570.255003508050	928.985561280700	596.935063986713	498.861332180956	936.165739451694	485.522755752370	525.139342336712	867.981449896772	751.521174791954	267.081603040576	782.327682813378	633.142114742016	211.641793752362	869.402091151263	558.516097838940	275.023933139277	871.444915306563	488.641790651761	285.675408012413	841.157831416652	415.465252066883	278.999930133888	748.249939723728	303.150393660775	227.339368925661	794.660144509201	191.554638632888	301.782055508734	856.941755742813	414.617460123437	528.218547860277	730.890339276202	380.999198044851	582.124297880975	715.547705709577	271.535013921331	534.171116154397	513.464129747815	214.923901354928	496.332161272905	679.872170485570	155.547023928133	547.827534397730	567.824482359609	155.597597848838	573.290409770436	741.280157822087	41.899786453838	578.334336901854	662.494059701475	38.598507488030	346.252591500228	736.657136259384	34.605012766091	265.518838804459	820.658825451657	94.855399637136	292.350172594242	948.869136788139	42.025784541488	264.827214766727	722.612849342244	1093.901573963590	36.308404639998	859.631284768432	879.592889141609	-38.143865347395	783.067782934569	1114.060004826468	660.972898730766	878.805149085522	871.446987842401	679.815928069155	
54	24.584928571429	599.501360848732	1009.301310197471	391.975647184848	790.229892708449	1421.263630371452	182.806247138636	894.107167020384	1361.006969891990	346.732799160877	815.283379731116	1451.544242014056	515.928281367949	786.452124946542	1494.794405679761	337.266146963713	825.361171308018	945.942746847260	511.792318041914	815.655682478041	960.573750068495	237.633904372338	896.500818038724	764.349941853274	494.347825656025	841.900384733307	648.319013852303	571.197659978809	933.494842796326	600.729102839732	499.963908290086	942.690197288821	489.519156159348	526.652482142848	866.696457164472	750.935237913767	267.034174284799	779.905117809070	633.348211306037	211.381181854620	866.002463173247	557.908422835643	274.907736060304	867.235620138438	488.193630165280	285.651001661841	836.931865557725	415.327139750073	278.831992558222	743.746525346236	303.239462686612	227.107199346443	789.906241502631	191.528199839188	301.643949936693	864.339406561585	417.490909826277	530.020436302127	738.561284629255	382.358696426300	583.579459870248	724.945859295004	272.462475869002	536.265092269648	523.981021551786	212.715681268043	497.837292961736	690.903473381733	156.238828031903	550.776692595894	578.738241548778	154.944729357102	575.600696269635	753.465182828081	43.582051542045	582.547557146335	657.482471030193	38.642074915006	346.218672576542	731.685275802365	34.598000717736	265.485561832962	815.708052327561	94.838408032719	292.289356213920	943.902748693944	41.943823697261	264.810947314450	727.678442483685	1095.436377107000	32.661018909308	868.581786913211	884.074471498837	-42.855992367962	777.418390827199	1115.791069871860	661.463574165751	867.538520322598	871.467063490430	685.524999119947	
55	24.597285714286	599.473283891112	1010.076290569145	390.891927949488	791.641732470191	1421.786315844656	182.367830197130	894.603472071338	1361.601882733208	346.876413988131	814.856291500922	1452.135007000647	515.610306036067	786.839283540156	1495.407400933304	337.519038834084	825.058916875782	946.862547317447	511.855262090442	816.457936843329	961.052197660647	237.561046942829	898.110246895036	767.174822518501	494.750230088372	845.249393355501	650.900307170644	572.252636676424	937.517243587868	604.361503690698	501.133933136493	948.678863584583	493.538646564157	528.237467593923	865.307677479256	750.326544270830	267.148230123972	777.369197727992	633.586227973139	211.194499755192	862.441629852348	557.304085316580	274.878943776935	862.841534809317	487.764298427215	285.675807476675	832.556273668791	415.224157870600	278.693927855020	739.110523674650	303.339499351768	226.940974378733	785.095436929759	191.524935183881	301.536386579324	871.525069428397	420.234883265742	531.974517189702	746.306147114969	382.917439129695	585.310430352396	735.012465436303	272.522843922548	538.668452114151	535.518841064495	208.477421524762	499.820298696740	703.249463139685	155.919470848875	554.125158815015	591.019063205543	152.671767070402	578.400095350346	767.615523847523	44.826548131914	587.238945203336	652.465298177631	38.672289966120	346.200505344898	726.705226120183	34.589118557004	265.462449734595	810.745538622517	94.825996239477	292.232183773104	938.927938154884	41.877640346687	264.792260906214	732.605402698455	1097.087939853787	29.168790653551	877.247016231154	888.749738050424	-47.571871501010	771.898591533875	1117.671469518627	662.090338576814	856.564351427751	871.917935086501	691.062358662145	
56	24.609642857143	599.463388394567	1010.853281514536	389.946113648206	793.079295649490	1422.292035626360	182.042011341442	895.125978762721	1362.189530478237	347.123746472711	814.495580678038	1452.737361538678	515.394299888292	787.228034507673	1495.992205256328	337.904584878835	824.769322803582	947.761207155713	512.022387416834	817.283602724053	961.515027741136	237.615637958857	899.511422502940	769.809289129407	495.294326020104	848.228383106944	653.348285877376	573.404419725974	941.046906426110	607.765485192558	502.343070942057	954.113521103631	497.518711624359	529.871211488846	863.828537981533	749.690266105799	267.410770350455	774.730927196982	633.847802517064	211.079580822290	858.733818368169	556.697803679877	274.931459923676	858.284255813584	487.354061001241	285.748351516871	828.046418617727	415.149185497178	278.588594197582	734.358043072362	303.444231461519	226.837923773645	780.232647355827	191.538284751928	301.461800390517	878.481044026141	422.812426834370	534.057671647854	754.138054862965	382.684351093570	587.315772210012	745.728159309481	271.763023444893	541.374230285837	548.104180976344	202.396971880361	502.301646669447	716.851096675860	154.631757439914	557.845200735445	604.633745087532	148.906544835590	581.686441250565	783.591410824926	45.591572344975	592.355337347496	647.444674369145	38.687306789082	346.197755685064	721.717110993884	34.578737254026	265.449635400136	805.771469021032	94.817055831585	292.181840312020	933.945654997365	41.827307504495	264.772189565886	737.363768628179	1098.832461452782	25.831850592181	885.614984948538	893.593730345571	-52.269503231123	766.547131128085	1119.661207533262	662.842227821110	845.972659813837	872.747868750429	696.425990755010	
